<?xml version="1.0" encoding="utf-8"?>
<!-- Generator: Adobe Illustrator 22.0.1, SVG Export Plug-In . SVG Version: 6.00 Build 0)  -->
<svg version="1.1" id="Layer_1" xmlns="http://www.w3.org/2000/svg" xmlns:xlink="http://www.w3.org/1999/xlink" x="0px" y="0px"
	 width="32px" height="32px" viewBox="0 0 32 32" style="enable-background:new 0 0 32 32;" xml:space="preserve">
<style type="text/css">
	.st0{fill:#B4B4B5;}
	.st1{fill:#FFFFFF;}
</style>
<rect x="2" y="2" class="st0" width="28.2" height="28.2"/>
<g>
	<path class="st1" d="M14.4,28.9v-9.8h-2.5c-0.4,0-0.6-0.3-0.6-0.6v-3.2c0-0.4,0.3-0.6,0.6-0.6h2.6v-3c0-3.5,2.2-5.5,5.3-5.5h2.7
		c0.4,0,0.6,0.3,0.6,0.6v2.7c0,0.4-0.3,0.6-0.6,0.6h-1.6c-1.7,0-2,0.8-2,2v2.7h3.8c0.4,0,0.6,0.4,0.6,0.6l-0.4,3.2
		c-0.1,0.4-0.3,0.5-0.6,0.5h-3.4V29L14.4,28.9L14.4,28.9z"/>
</g>
</svg>
