<?xml version="1.0" encoding="utf-8"?>
<!-- Generator: Adobe Illustrator 22.0.1, SVG Export Plug-In . SVG Version: 6.00 Build 0)  -->
<svg version="1.1" id="Layer_1" xmlns="http://www.w3.org/2000/svg" xmlns:xlink="http://www.w3.org/1999/xlink" x="0px" y="0px"
	 width="32px" height="32px" viewBox="0 0 32 32" style="enable-background:new 0 0 32 32;" xml:space="preserve">
<style type="text/css">
	.st0{fill:#B4B4B5;}
	.st1{fill:#FFFFFF;}
</style>
<path class="st0" d="M6.5,0h18.6c3.5,0,6.5,2.9,6.5,6.5v18.6c0,3.5-2.9,6.5-6.5,6.5H6.5C3,31.6,0,28.7,0,25.1V6.5C0,2.9,2.9,0,6.5,0
	z"/>
<path class="st1" d="M15.7,5.3c6.4,0,11.6,4.2,11.6,9.3c0,1.8-0.6,3.5-1.7,4.9c-0.1,0.1-0.1,0.1-0.2,0.3l0,0
	c-0.4,0.4-0.8,0.9-1.2,1.2c-3.2,2.9-8.5,6.5-9.1,5.9c-0.6-0.5,1-2.8-0.9-3.2c-0.1,0-0.3,0-0.4-0.1l0,0l0,0c-5.4-0.8-9.5-4.5-9.5-9.1
	C4.2,9.4,9.3,5.3,15.7,5.3L15.7,5.3z"/>
<path class="st0" d="M9.1,17.4h2.3c0.4,0,0.6-0.3,0.6-0.6v-0.1c0-0.4-0.3-0.6-0.6-0.6H9.7v-3.8c0-0.4-0.3-0.6-0.6-0.6H9
	c-0.4,0-0.6,0.3-0.6,0.6v4.5C8.4,17.1,8.7,17.4,9.1,17.4z M23.4,14.6L23.4,14.6c0-0.4-0.3-0.6-0.6-0.6h-1.7v-1h1.7
	c0.4,0,0.6-0.3,0.6-0.6v-0.1c0-0.4-0.3-0.6-0.6-0.6h-2.3c-0.4,0-0.6,0.3-0.6,0.6v4.5c0,0.4,0.3,0.6,0.6,0.6h2.3
	c0.4,0,0.6-0.3,0.6-0.6v-0.1c0-0.4-0.3-0.6-0.6-0.6h-1.7v-0.9h1.7C23.2,15.3,23.4,15,23.4,14.6L23.4,14.6z M19,17.3L19,17.3
	c0.1-0.1,0.1-0.3,0.1-0.4v-4.5c0-0.4-0.3-0.6-0.6-0.6h-0.1c-0.4,0-0.6,0.3-0.6,0.6V15l-2.2-2.9c-0.1-0.2-0.3-0.3-0.5-0.3H15
	c-0.4,0-0.6,0.3-0.6,0.6v4.5c0,0.4,0.3,0.6,0.6,0.6h0.1c0.4,0,0.6-0.3,0.6-0.6v-2.7l2.2,3c0,0,0,0.1,0.1,0.1l0,0
	c0.1,0.1,0.1,0.1,0.2,0.1s0.1,0.1,0.2,0.1h0.1C18.7,17.4,18.8,17.4,19,17.3L19,17.3L19,17.3z M13,17.4L13,17.4
	c0.4,0,0.6-0.3,0.6-0.6v-4.5c0-0.4-0.3-0.6-0.6-0.6l0,0c-0.4,0-0.6,0.3-0.6,0.6v4.5C12.4,17.1,12.7,17.4,13,17.4L13,17.4z"/>
</svg>
